# Blender v3.3.1 OBJ File: '4.blend'
# www.blender.org
o 4_Cube.006
v 0.577826 -0.220750 0.000002
v 0.605330 -0.125510 0.000002
v 0.577826 -0.220750 0.469491
v 0.605330 -0.125510 0.469491
v -0.070999 -0.033383 0.000002
v -0.043495 0.061857 0.000002
v -0.070999 -0.033383 0.469491
v -0.043495 0.061857 0.469491
v 0.317004 -0.062238 0.392148
v 0.020936 0.023218 0.164827
v 0.020936 0.023218 0.121763
v 0.317004 -0.062238 0.121763
v 0.317004 -0.062238 0.077993
v 0.387206 -0.082501 0.077993
v 0.184349 -0.081912 0.382674
v 0.490304 -0.112258 0.121763
v 0.490304 -0.112258 0.121884
v 0.480759 -0.166174 0.155353
v 0.480768 -0.166144 0.112289
v 0.387206 -0.082501 0.121884
v 0.184404 -0.081722 0.112289
v 0.387206 -0.082501 0.392148
v 0.184412 -0.081691 0.068519
v 0.317004 -0.062238 0.357909
v 0.114141 -0.061674 0.068519
v 0.317004 -0.062238 0.218834
v 0.113947 -0.062355 0.112216
v 0.135565 -0.009868 0.218834
v 0.010930 -0.032307 0.112289
v 0.495623 -0.093829 0.121763
v 0.010911 -0.032375 0.209359
v 0.495623 -0.093829 0.218834
v 0.114112 -0.061773 0.209359
v 0.462657 -0.084309 0.121840
v 0.114078 -0.061895 0.382674
v 0.462657 -0.084309 0.121763
v 0.392529 -0.064058 0.121825
v 0.184356 -0.081888 0.348434
v 0.392529 -0.064058 0.218834
v 0.184384 -0.081790 0.209359
v 0.366005 -0.133526 0.209359
v 0.322330 -0.043786 0.218834
v 0.322330 -0.043786 0.357909
v 0.392529 -0.064058 0.392148
v 0.322330 -0.043786 0.392148
v 0.392529 -0.064058 0.091997
v 0.392529 -0.064058 0.077993
v 0.322330 -0.043786 0.077993
v 0.392529 -0.064058 0.106000
v 0.322330 -0.043786 0.121763
v 0.140898 0.008608 0.218834
v 0.026274 0.041709 0.121763
v 0.026274 0.041709 0.164827
v 0.023605 0.032463 0.164827
v 0.319667 -0.053012 0.077993
v 0.319667 -0.053012 0.121763
v 0.389867 -0.073279 0.077993
v 0.023605 0.032463 0.121763
v 0.389867 -0.073279 0.219115
v 0.389867 -0.073279 0.392148
v 0.319667 -0.053012 0.392148
v 0.492964 -0.103044 0.121763
v 0.492964 -0.103044 0.219115
v 0.004420 -0.055162 0.112272
v 0.177714 -0.105206 0.209341
v 0.107515 -0.084934 0.209342
v 0.004420 -0.055162 0.209342
v 0.177714 -0.105206 0.348417
v 0.177714 -0.105206 0.382656
v 0.107515 -0.084934 0.382656
v 0.177714 -0.105206 0.068501
v 0.107515 -0.084934 0.068501
v 0.107515 -0.084934 0.112233
v 0.473773 -0.190701 0.155334
v 0.359148 -0.157600 0.209341
v 0.177714 -0.105206 0.112271
v 0.473773 -0.190701 0.112270
vt 0.718999 0.881352
vt 0.402002 0.881352
vt 0.718999 0.864747
vt 0.642002 0.783313
vt 0.798999 0.629453
vt 0.798999 0.783313
vt 0.722002 0.469587
vt 0.878999 0.469587
vt 0.878999 0.315728
vt 0.998999 0.158865
vt 0.982002 0.312725
vt 0.998999 0.312725
vt 0.638999 0.707884
vt 0.482002 0.783313
vt 0.638999 0.783313
vt 0.078999 0.982394
vt 0.078999 0.998999
vt 0.002002 0.998999
vt 0.878999 0.861744
vt 0.802002 0.861744
vt 0.878999 0.786316
vt 0.401001 0.785315
vt 0.557998 0.785315
vt 0.401001 0.860743
vt 0.158999 0.979391
vt 0.002002 0.979391
vt 0.158999 0.962786
vt 0.322002 0.940175
vt 0.398999 0.786316
vt 0.398999 0.940175
vt 0.881001 0.628452
vt 0.917998 0.628452
vt 0.881001 0.782312
vt 0.798999 0.785315
vt 0.721001 0.861744
vt 0.798999 0.861744
vt 0.201001 0.998999
vt 0.238999 0.981393
vt 0.201001 0.981393
vt 0.981001 0.667668
vt 0.983999 0.744097
vt 0.983999 0.667668
vt 0.718999 0.900960
vt 0.401001 0.883354
vt 0.401001 0.900960
vt 0.981001 0.648060
vt 0.998999 0.665666
vt 0.998999 0.648060
vt 0.978999 0.783313
vt 0.961001 0.471589
vt 0.961001 0.783313
vt 0.878999 0.942177
vt 0.721001 0.979391
vt 0.878999 0.979391
vt 0.998999 0.001001
vt 0.961001 0.155862
vt 0.998999 0.155862
vt 0.958999 0.959783
vt 0.881001 0.942177
vt 0.881001 0.959783
vt 0.998999 0.785315
vt 0.961001 0.861744
vt 0.998999 0.861744
vt 0.981001 0.628452
vt 0.998999 0.646058
vt 0.998999 0.628452
vt 0.241001 0.979391
vt 0.318999 0.961785
vt 0.241001 0.961785
vt 0.958999 0.628452
vt 0.921001 0.783313
vt 0.958999 0.783313
vt 0.718999 0.785315
vt 0.641001 0.861744
vt 0.718999 0.861744
vt 0.198999 0.998999
vt 0.161001 0.981393
vt 0.161001 0.998999
vt 0.998999 0.469587
vt 0.982002 0.469587
vt 0.998999 0.394159
vt 0.998999 0.942177
vt 0.961001 0.979391
vt 0.998999 0.979391
vt 0.981001 0.550021
vt 0.998999 0.587234
vt 0.998999 0.550021
vt 0.158999 0.981393
vt 0.081001 0.998999
vt 0.158999 0.998999
vt 0.998999 0.314727
vt 0.981001 0.391156
vt 0.998999 0.391156
vt 0.958999 0.961785
vt 0.881001 0.979391
vt 0.958999 0.979391
vt 0.978999 0.940175
vt 0.961001 0.863746
vt 0.961001 0.940175
vt 0.981001 0.589236
vt 0.998999 0.606842
vt 0.998999 0.589236
vt 0.238999 0.979391
vt 0.161001 0.961785
vt 0.161001 0.979391
vt 0.978999 0.469587
vt 0.961001 0.157864
vt 0.961001 0.469587
vt 0.981001 0.608844
vt 0.998999 0.626450
vt 0.998999 0.608844
vt 0.318999 0.959783
vt 0.001001 0.942177
vt 0.001001 0.959783
vt 0.401001 0.880351
vt 0.401001 0.863746
vt 0.717998 0.863746
vt 0.641001 0.628452
vt 0.797998 0.628452
vt 0.641001 0.782312
vt 0.721001 0.468586
vt 0.877998 0.314727
vt 0.721001 0.314727
vt 0.981001 0.157864
vt 0.981001 0.311724
vt 0.997998 0.157864
vt 0.481001 0.782312
vt 0.637998 0.706883
vt 0.481001 0.706883
vt 0.997998 0.393158
vt 0.981001 0.393158
vt 0.981001 0.468586
vt 0.801001 0.860743
vt 0.801001 0.785315
vt 0.877998 0.785315
vt 0.722002 0.940175
vt 0.798999 0.940175
vt 0.798999 0.864747
vt 0.001001 0.978390
vt 0.001001 0.961785
vt 0.157998 0.961785
vt 0.321001 0.785315
vt 0.397998 0.785315
vt 0.321001 0.939174
vt 0.802002 0.940175
vt 0.878999 0.940175
vt 0.878999 0.864747
vt 0.001001 0.997998
vt 0.077998 0.981393
vt 0.001001 0.981393
vt 0.801001 0.863746
vt 0.801001 0.939174
vt 0.877998 0.863746
vt 0.878999 0.471589
vt 0.801001 0.783313
vt 0.878999 0.783313
vt 0.398999 0.979391
vt 0.321001 0.961785
vt 0.321001 0.979391
vt 0.958999 0.626450
vt 0.881001 0.314727
vt 0.881001 0.626450
vt 0.321001 0.783313
vt 0.478999 0.706883
vt 0.321001 0.706883
vt 0.798999 0.471589
vt 0.721001 0.626450
vt 0.798999 0.626450
vt 0.638999 0.785315
vt 0.561001 0.861744
vt 0.638999 0.861744
vt 0.641001 0.902962
vt 0.718999 0.979391
vt 0.718999 0.902962
vt 0.398999 0.959783
vt 0.321001 0.942177
vt 0.321001 0.959783
vt 0.638999 0.902962
vt 0.561001 0.979391
vt 0.638999 0.979391
vt 0.558999 0.902962
vt 0.481001 0.979391
vt 0.558999 0.979391
vt 0.478999 0.902962
vt 0.401001 0.979391
vt 0.478999 0.979391
vt 0.998999 0.548019
vt 0.981001 0.471589
vt 0.981001 0.548019
vt 0.958999 0.863746
vt 0.881001 0.940175
vt 0.958999 0.940175
vt 0.958999 0.785315
vt 0.881001 0.861744
vt 0.958999 0.861744
vt 0.721001 0.785315
vt 0.238999 0.998999
vt 0.981001 0.744097
vt 0.718999 0.883354
vt 0.981001 0.665666
vt 0.978999 0.471589
vt 0.721001 0.942177
vt 0.961001 0.001001
vt 0.958999 0.942177
vt 0.961001 0.785315
vt 0.981001 0.646058
vt 0.318999 0.979391
vt 0.921001 0.628452
vt 0.641001 0.785315
vt 0.198999 0.981393
vt 0.961001 0.942177
vt 0.981001 0.587234
vt 0.081001 0.981393
vt 0.981001 0.314727
vt 0.881001 0.961785
vt 0.978999 0.863746
vt 0.981001 0.606842
vt 0.238999 0.961785
vt 0.978999 0.157864
vt 0.981001 0.626450
vt 0.318999 0.942177
vt 0.801001 0.471589
vt 0.398999 0.961785
vt 0.958999 0.314727
vt 0.478999 0.783313
vt 0.721001 0.471589
vt 0.561001 0.785315
vt 0.641001 0.979391
vt 0.398999 0.942177
vt 0.561001 0.902962
vt 0.481001 0.902962
vt 0.401001 0.902962
vt 0.998999 0.471589
vt 0.881001 0.863746
vt 0.881001 0.785315
vt 0.641001 0.001001
vt 0.958999 0.312725
vt 0.958999 0.001001
vt 0.001001 0.001001
vt 0.318999 0.312725
vt 0.318999 0.001001
vt 0.001001 0.314727
vt 0.318999 0.626450
vt 0.318999 0.314727
vt 0.638999 0.001001
vt 0.321001 0.312725
vt 0.638999 0.312725
vt 0.517101 0.372381
vt 0.321001 0.314727
vt 0.638999 0.314727
vt 0.638999 0.628452
vt 0.444978 0.657749
vt 0.444977 0.649480
vt 0.558999 0.786316
vt 0.558999 0.861744
vt 0.402002 0.861744
vt 0.180297 0.679805
vt 0.001001 0.628452
vt 0.318999 0.628452
vt 0.718999 0.314727
vt 0.669071 0.450692
vt 0.669071 0.416965
vt 0.918999 0.629453
vt 0.882002 0.783313
vt 0.918999 0.783313
vt 0.721001 0.863746
vt 0.797998 0.863746
vt 0.721001 0.939174
vt 0.641001 0.312725
vt 0.001001 0.312725
vt 0.001001 0.626450
vt 0.321001 0.001001
vt 0.371999 0.523315
vt 0.371999 0.551908
vt 0.321001 0.626450
vt 0.638999 0.626450
vt 0.602035 0.487456
vt 0.602035 0.551907
vt 0.551507 0.487456
vt 0.551507 0.372381
vt 0.321110 0.649480
vt 0.321001 0.637336
vt 0.638999 0.704881
vt 0.321005 0.692624
vt 0.321002 0.657749
vt 0.035196 0.830737
vt 0.035196 0.859330
vt 0.001001 0.940175
vt 0.318999 0.940175
vt 0.265230 0.794879
vt 0.265230 0.859330
vt 0.214703 0.794879
vt 0.214703 0.679805
vt 0.651141 0.416965
vt 0.641011 0.416965
vt 0.641050 0.383273
vt 0.641001 0.383273
vt 0.641050 0.367434
vt 0.660106 0.416965
vt 0.718999 0.626450
vt 0.641050 0.592930
vt 0.641050 0.450692
vn 0.2773 0.9608 0.0000
vn -0.0219 0.9998 0.0000
vn 0.0006 0.0030 1.0000
vn -0.9608 0.2773 0.0000
vn 0.7109 0.7032 0.0000
vn 0.5704 -0.1646 -0.8047
vn 0.9608 -0.2773 0.0000
vn -0.0000 0.0000 1.0000
vn -0.5697 0.1644 0.8052
vn 0.0000 0.0000 -1.0000
vn 0.2760 0.9561 -0.0982
vn -0.0081 -0.0282 -0.9996
vn -0.2740 -0.9617 -0.0007
vn -0.2740 -0.9617 0.0062
vn 0.9617 -0.2740 0.0000
vn -0.2800 -0.9600 -0.0007
vn -0.5708 0.1632 -0.8047
vn -0.9617 0.2740 0.0000
vn -0.0002 -0.0007 1.0000
vn 0.5701 -0.1630 0.8052
vn 0.0002 0.0007 -1.0000
vn 0.0006 0.0006 1.0000
vn 0.0006 0.0022 1.0000
vn 0.7109 0.7033 0.0000
vn 0.0005 -0.0009 1.0000
vn 0.9607 -0.2774 0.0000
vn -0.9607 0.2774 0.0000
vn -0.2774 -0.9607 0.0000
vn 0.2774 0.9607 -0.0000
vn -1.0000 0.0000 0.0034
vn 0.2774 0.9608 0.0000
s off
f 10/1/1 9/2/1 11/3/1
f 11/4/1 9/5/1 28/6/1
f 11/7/1 28/8/1 12/9/1
f 28/10/1 9/11/1 24/12/1
f 12/13/1 28/14/1 26/15/1
f 24/16/1 9/17/1 22/18/1
f 24/19/1 22/20/1 26/21/1
f 26/22/1 22/23/1 12/24/1
f 12/25/1 22/26/1 13/27/1
f 13/28/1 22/29/1 14/30/1
f 20/31/2 14/32/2 22/33/2
f 20/34/3 34/35/3 37/36/3
f 46/37/4 20/38/4 37/39/4
f 16/40/5 34/41/5 17/42/5
f 54/43/6 45/44/6 61/45/6
f 58/46/7 53/47/7 54/48/7
f 58/49/8 50/50/8 52/51/8
f 28/52/9 43/53/9 51/54/9
f 42/55/10 28/56/10 51/57/10
f 60/58/10 9/59/10 61/60/10
f 26/61/7 43/62/7 24/63/7
f 55/64/7 50/65/7 56/66/7
f 55/67/8 47/68/8 48/69/8
f 59/70/4 22/71/4 60/72/4
f 63/73/11 20/74/11 59/75/11
f 57/76/4 49/77/4 47/78/4
f 46/79/7 49/80/7 14/81/7
f 62/82/4 17/83/4 63/84/4
f 36/85/8 62/86/8 30/87/8
f 62/88/4 32/89/4 30/90/4
f 32/91/12 59/92/12 39/93/12
f 59/94/4 44/95/4 39/96/4
f 13/97/8 57/98/8 55/99/8
f 13/100/7 56/101/7 12/102/7
f 44/103/10 61/104/10 45/105/10
f 11/106/8 56/107/8 58/108/8
f 11/109/7 54/110/7 10/111/7
f 10/112/6 61/113/6 9/114/6
f 19/115/13 18/116/13 15/117/13
f 41/118/13 19/119/13 15/120/13
f 21/121/13 19/122/13 41/123/13
f 38/124/13 41/125/13 15/126/13
f 21/127/13 41/128/13 40/129/13
f 38/130/13 15/131/13 35/132/13
f 40/133/13 38/134/13 35/135/13
f 21/136/13 40/137/13 35/138/13
f 23/139/13 21/140/13 35/141/13
f 25/142/13 23/143/13 35/144/13
f 27/145/14 33/146/14 31/147/14
f 25/148/15 33/149/15 27/150/15
f 29/151/16 27/152/16 31/153/16
f 69/154/17 18/155/17 74/156/17
f 18/157/18 77/158/18 74/159/18
f 19/160/19 76/161/19 77/162/19
f 41/163/20 68/164/20 75/165/20
f 65/166/21 41/167/21 75/168/21
f 70/169/21 15/170/21 69/171/21
f 38/172/18 65/173/18 68/174/18
f 21/175/18 71/176/18 76/177/18
f 23/178/19 72/179/19 71/180/19
f 66/181/15 35/182/15 70/183/15
f 67/184/21 33/185/21 66/186/21
f 72/187/15 27/188/15 73/189/15
f 64/190/15 31/191/15 67/192/15
f 27/193/22 64/194/22 73/195/22
f 20/34/23 17/196/23 34/35/23
f 46/37/4 14/197/4 20/38/4
f 16/40/24 36/198/24 34/41/24
f 54/43/6 53/199/6 45/44/6
f 58/46/7 52/200/7 53/47/7
f 58/49/8 56/201/8 50/50/8
f 28/52/9 24/202/9 43/53/9
f 42/55/10 26/203/10 28/56/10
f 60/58/10 22/204/10 9/59/10
f 26/61/7 42/205/7 43/62/7
f 55/64/7 48/206/7 50/65/7
f 55/67/8 57/207/8 47/68/8
f 59/70/4 20/208/4 22/71/4
f 63/73/11 17/209/11 20/74/11
f 57/76/4 14/210/4 49/77/4
f 62/82/4 16/211/4 17/83/4
f 36/85/8 16/212/8 62/86/8
f 62/88/4 63/213/4 32/89/4
f 32/91/12 63/214/12 59/92/12
f 59/94/4 60/215/4 44/95/4
f 13/97/8 14/216/8 57/98/8
f 13/100/7 55/217/7 56/101/7
f 44/103/10 60/218/10 61/104/10
f 11/106/8 12/219/8 56/107/8
f 11/109/7 58/220/7 54/110/7
f 10/112/6 54/221/6 61/113/6
f 69/154/17 15/222/17 18/155/17
f 18/157/18 19/223/18 77/158/18
f 19/160/19 21/224/19 76/161/19
f 41/163/20 38/225/20 68/164/20
f 65/166/21 40/226/21 41/167/21
f 70/169/21 35/227/21 15/170/21
f 38/172/18 40/228/18 65/173/18
f 21/175/18 23/229/18 71/176/18
f 23/178/19 25/230/19 72/179/19
f 66/181/15 33/231/15 35/182/15
f 67/184/21 31/232/21 33/185/21
f 72/187/15 25/233/15 27/188/15
f 64/190/15 29/234/15 31/191/15
f 27/193/25 29/235/25 64/194/25
f 2/236/26 3/237/26 1/238/26
f 4/239/8 7/240/8 3/241/8
f 8/242/27 5/243/27 7/244/27
f 5/245/10 2/246/10 1/247/10
f 69/248/28 3/249/28 7/250/28
f 5/251/28 71/252/28 72/253/28
f 68/254/28 65/255/28 75/256/28
f 45/257/29 8/258/29 4/259/29
f 2/260/29 48/261/29 47/262/29
f 51/263/29 43/264/29 42/265/29
f 33/266/30 25/267/30 35/268/30
f 2/236/26 4/269/26 3/237/26
f 4/239/8 8/270/8 7/240/8
f 8/242/27 6/271/27 5/243/27
f 5/245/10 6/272/10 2/246/10
f 74/273/28 77/274/28 1/275/28
f 7/250/28 5/276/28 67/277/28
f 5/276/28 64/278/28 67/277/28
f 67/277/28 66/279/28 70/280/28
f 74/273/28 1/275/28 3/249/28
f 69/248/28 74/273/28 3/249/28
f 7/250/28 67/277/28 70/280/28
f 70/280/28 69/248/28 7/250/28
f 72/253/28 73/281/28 64/282/28
f 5/251/28 1/283/28 71/252/28
f 1/283/28 77/284/28 71/252/28
f 77/284/28 76/285/28 71/252/28
f 72/253/28 64/282/28 5/251/28
f 53/286/29 52/287/29 6/288/29
f 4/259/29 2/289/29 32/290/29
f 2/289/29 30/291/29 32/290/29
f 32/290/29 39/292/29 44/293/29
f 53/286/29 6/288/29 8/258/29
f 45/257/29 53/286/29 8/258/29
f 4/259/29 32/290/29 44/293/29
f 44/293/29 45/257/29 4/259/29
f 49/294/29 37/295/29 36/296/29
f 37/295/31 34/297/31 36/296/31
f 36/296/29 30/298/29 2/260/29
f 47/262/29 46/299/29 36/296/29
f 46/299/29 49/294/29 36/296/29
f 47/262/29 36/296/29 2/260/29
f 2/260/29 6/300/29 48/261/29
f 6/300/29 52/301/29 48/261/29
f 52/301/29 50/302/29 48/261/29
